<svg width="11" height="7" viewBox="0 0 11 7" fill="none" xmlns="http://www.w3.org/2000/svg">
<path d="M10.6706 2.01542L6.2193 6.6821C6.02482 6.88626 5.76747 7 5.5 7C5.23253 7 4.97518 6.88626 4.78071 6.6821L0.329368 2.01542C0.176524 1.85515 0.0704711 1.64755 0.0249389 1.41951C-0.0205934 1.19147 -0.00350808 0.953481 0.0739827 0.736357C0.151473 0.519232 0.285801 0.332971 0.459576 0.201687C0.63335 0.0704032 0.838569 0.000141905 1.04866 0H9.95134C10.1614 0.000141905 10.3667 0.0704032 10.5404 0.201687C10.7142 0.332971 10.8485 0.519232 10.926 0.736357C11.0035 0.953481 11.0206 1.19147 10.9751 1.41951C10.9295 1.64755 10.8235 1.85515 10.6706 2.01542Z" fill="#4294FF"/>
</svg>
