<svg width="20" height="18" viewBox="0 0 20 18" fill="none" xmlns="http://www.w3.org/2000/svg">
<path d="M20.0003 2V17C19.9995 17.265 19.8939 17.5189 19.7066 17.7063C19.5192 17.8936 19.2653 17.9992 19.0003 18H1.0003C0.735314 17.9992 0.481404 17.8936 0.294034 17.7063C0.106663 17.5189 0.00106034 17.265 0.00029522 17V2C-0.001725 1.9531 0.00163016 1.90613 0.0102952 1.86C0.0443241 1.62157 0.163139 1.40338 0.344964 1.24543C0.526789 1.08748 0.759446 1.00035 1.0003 1H19.0003C19.2653 1.00077 19.5192 1.10637 19.7066 1.29374C19.8939 1.48111 19.9995 1.73502 20.0003 2Z" fill="#E6ECFF"/>
<path d="M15.0403 18H1.0003C0.735314 17.9992 0.481404 17.8936 0.294034 17.7062C0.106663 17.5189 0.00106034 17.265 0.00029522 17V1.99999C-0.001725 1.95309 0.00163016 1.90612 0.0102952 1.85999C1.6403 6.55999 5.6503 14.34 15.0403 18Z" fill="#B7C6E2"/>
<path d="M11.0003 9H4.00029V11H11.0003V9Z" fill="#4294FF"/>
<path d="M5.18029 11H4.00029V9.51001C4.36029 10.01 4.76029 10.51 5.18029 11Z" fill="#2965ED"/>
<path d="M20.0003 2V6H0.00029522V2C-0.001725 1.9531 0.00163016 1.90613 0.0102952 1.86C0.0443241 1.62157 0.163139 1.40338 0.344964 1.24543C0.526789 1.08748 0.759446 1.00035 1.0003 1H19.0003C19.2653 1.00077 19.5192 1.10637 19.7066 1.29374C19.8939 1.48111 19.9995 1.73502 20.0003 2Z" fill="#4294FF"/>
<path d="M6.00029 0H4.00029V4H6.00029V0Z" fill="#376CFB"/>
<path d="M11.0003 0H9.00029V4H11.0003V0Z" fill="#376CFB"/>
<path d="M16.0003 0H14.0003V4H16.0003V0Z" fill="#376CFB"/>
<path d="M16.0003 13H4.00029V15H16.0003V13Z" fill="#4294FF"/>
<path d="M9.51029 15H4.00029V13H7.09029C7.85041 13.7211 8.65896 14.3893 9.51029 15Z" fill="#2965ED"/>
<path d="M1.8103 5.99999H0.00029522V1.99999C-0.001725 1.95309 0.00163016 1.90612 0.0102952 1.85999C0.510707 3.28118 1.11225 4.66472 1.8103 5.99999Z" fill="#2965ED"/>
</svg>
