<svg width="21" height="16" viewBox="0 0 21 16" fill="none" xmlns="http://www.w3.org/2000/svg">
<path d="M19.5 4.19617e-05H1.5C0.947715 4.19617e-05 0.5 0.447757 0.5 1.00004V15C0.5 15.5523 0.947715 16 1.5 16H19.5C20.0523 16 20.5 15.5523 20.5 15V1.00004C20.5 0.447757 20.0523 4.19617e-05 19.5 4.19617e-05Z" fill="#4294FF"/>
<path d="M20.5 2.46004V4.65004L10.91 8.91004C10.7814 8.96931 10.6416 9 10.5 9C10.3584 9 10.2186 8.96931 10.09 8.91004L0.5 4.65004V2.46004L10.5 6.91004L20.5 2.46004Z" fill="#376CFB"/>
</svg>
