<svg width="18" height="14" viewBox="0 0 18 14" fill="none" xmlns="http://www.w3.org/2000/svg">
<path d="M18 9.99006V13.0001C17.9993 13.265 17.8937 13.5189 17.7063 13.7063C17.5189 13.8937 17.265 13.9993 17 14.0001H9.00003C8.73505 13.9993 8.48114 13.8937 8.29377 13.7063C8.1064 13.5189 8.00079 13.265 8.00003 13.0001V10.0001C7.99893 9.85516 8.02965 9.71179 8.09003 9.58006C8.47066 8.80446 9.0615 8.15138 9.79523 7.69523C10.529 7.23908 11.3761 6.99821 12.24 7.00006H13.76C14.6245 6.99564 15.4727 7.23545 16.2069 7.69189C16.9411 8.14833 17.5315 8.80284 17.91 9.58006C17.9693 9.7086 18.0001 9.84849 18 9.99006Z" fill="#4294FF"/>
<path d="M18 12.88V13C17.9992 13.265 17.8936 13.5189 17.7063 13.7062C17.5189 13.8936 17.265 13.9992 17 14H9C8.73502 13.9992 8.48111 13.8936 8.29374 13.7062C8.10637 13.5189 8.00077 13.265 8 13V11.11C11.2594 12.0605 14.6124 12.654 18 12.88Z" fill="#2965ED"/>
<path d="M13 6C14.6569 6 16 4.65685 16 3C16 1.34315 14.6569 0 13 0C11.3431 0 10 1.34315 10 3C10 4.65685 11.3431 6 13 6Z" fill="#4294FF"/>
<path d="M10 9.99006V14.0001H1.00003C0.735047 13.9993 0.481138 13.8937 0.293767 13.7063C0.106396 13.5189 0.000793581 13.265 2.84594e-05 13.0001V10.0001C-0.00107019 9.85516 0.0296528 9.71179 0.0900284 9.58006C0.355209 9.03329 0.729569 8.54662 1.19003 8.15006C2.03217 7.40716 3.11705 6.99811 4.24003 7.00006H5.76003C6.62453 6.99564 7.4727 7.23545 8.2069 7.69189C8.9411 8.14833 9.53146 8.80284 9.91003 9.58006C9.96934 9.7086 10.0001 9.84849 10 9.99006Z" fill="#E6ECFF"/>
<path d="M5 6C6.65685 6 8 4.65685 8 3C8 1.34315 6.65685 0 5 0C3.34315 0 2 1.34315 2 3C2 4.65685 3.34315 6 5 6Z" fill="#E6ECFF"/>
<path d="M10 11.65V14H1.00003C0.735047 13.9993 0.481138 13.8937 0.293767 13.7063C0.106396 13.5189 0.000793581 13.265 2.84594e-05 13V10C-0.00107019 9.85513 0.0296528 9.71175 0.0900284 9.58002C0.355209 9.03325 0.729569 8.54658 1.19003 8.15002C3.92754 9.76626 6.89971 10.947 10 11.65Z" fill="#B7C6E2"/>
</svg>
