<svg width="17" height="20" viewBox="0 0 17 20" fill="none" xmlns="http://www.w3.org/2000/svg">
<path d="M11.6558 8H5.65576C5.39055 8 5.13619 7.89464 4.94866 7.70711C4.76112 7.51957 4.65576 7.26522 4.65576 7V4C4.65576 2.93913 5.07719 1.92172 5.82733 1.17157C6.57748 0.421427 7.5949 0 8.65576 0C9.71663 0 10.734 0.421427 11.4842 1.17157C12.2343 1.92172 12.6558 2.93913 12.6558 4V7C12.6558 7.26522 12.5504 7.51957 12.3629 7.70711C12.1753 7.89464 11.921 8 11.6558 8ZM6.65576 6H10.6558V4C10.6558 3.46957 10.445 2.96086 10.07 2.58579C9.6949 2.21071 9.18619 2 8.65576 2C8.12533 2 7.61662 2.21071 7.24155 2.58579C6.86648 2.96086 6.65576 3.46957 6.65576 4V6Z" fill="#4294FF"/>
<path d="M16.4998 9V17C16.5017 17.0436 16.4978 17.0872 16.4884 17.13C16.4518 17.9016 16.0776 18.6309 15.444 19.1657C14.8103 19.7005 13.9663 19.9994 13.088 20H3.98981C3.08576 19.9977 2.21948 19.6809 1.58022 19.1188C0.940948 18.5566 0.580643 17.7949 0.578003 17V9C0.581517 8.45255 0.753609 7.91615 1.076 7.4478C1.39839 6.97945 1.85904 6.59662 2.40901 6.34C2.89861 6.11989 3.43994 6.00346 3.98981 6H13.088C13.992 6.00232 14.8583 6.31914 15.4976 6.88124C16.1368 7.44335 16.4971 8.20506 16.4998 9Z" fill="#E6ECFF"/>
<path d="M16.4884 17.13C16.4518 17.9016 16.0776 18.6309 15.444 19.1657C14.8103 19.7005 13.9663 19.9994 13.088 20H3.98981C3.08576 19.9977 2.21948 19.6809 1.58022 19.1188C0.940948 18.5566 0.580643 17.7949 0.578003 17V9C0.581517 8.45254 0.753609 7.91615 1.076 7.4478C1.39839 6.97944 1.85904 6.59662 2.40901 6.34C3.64863 10.06 7.09456 15.13 16.4884 17.13Z" fill="#B7C6E2"/>
<path d="M10.6558 12C10.657 12.3497 10.5649 12.6934 10.3892 12.9957C10.2134 13.298 9.96025 13.548 9.65576 13.72V16H7.65576V13.72C7.39331 13.5732 7.16831 13.3678 6.99831 13.1198C6.82832 12.8717 6.71794 12.5877 6.67576 12.29C6.66378 12.1938 6.6571 12.097 6.65576 12C6.65576 11.4696 6.86648 10.9609 7.24155 10.5858C7.61662 10.2107 8.12533 10 8.65576 10C9.18619 10 9.6949 10.2107 10.07 10.5858C10.445 10.9609 10.6558 11.4696 10.6558 12Z" fill="#4294FF"/>
<path d="M9.65578 14.69V16H7.65578V13.72C7.39332 13.5732 7.16833 13.3678 6.99833 13.1197C6.82834 12.8717 6.71795 12.5877 6.67578 12.29C7.56492 13.2114 8.56606 14.0177 9.65578 14.69Z" fill="#2965ED"/>
</svg>
