<svg width="23" height="20" viewBox="0 0 23 20" fill="none" xmlns="http://www.w3.org/2000/svg">
<path d="M13 0H1C0.447715 0 0 0.447715 0 1V19C0 19.5523 0.447715 20 1 20H13C13.5523 20 14 19.5523 14 19V1C14 0.447715 13.5523 0 13 0Z" fill="#E6ECFF"/>
<path d="M14 13.26V19C13.9992 19.265 13.8936 19.5189 13.7063 19.7063C13.5189 19.8936 13.265 19.9992 13 20H1C0.735019 19.9992 0.481109 19.8936 0.293738 19.7063C0.106368 19.5189 0.000765122 19.265 0 19V3.94C2.01 7.68 6.02 11.66 14 13.26Z" fill="#B7C6E2"/>
<path d="M21.71 10.71L17.71 14.71L16.29 13.29L18.59 11H7V8.99998H18.59L16.29 6.70998L17.71 5.28998L21.71 9.28998C21.8974 9.47879 22.0025 9.73399 22.0025 9.99998C22.0025 10.266 21.8974 10.5212 21.71 10.71Z" fill="#4294FF"/>
</svg>
