<svg width="21" height="21" viewBox="0 0 21 21" fill="none" xmlns="http://www.w3.org/2000/svg">
<path d="M6.00003 7.00004C5.80228 6.99999 5.60898 6.94132 5.44457 6.83144C5.28016 6.72155 5.15202 6.56539 5.07635 6.38269C5.00068 6.19999 4.98088 5.99896 5.01945 5.805C5.05802 5.61105 5.15322 5.43289 5.29303 5.29304L9.29303 1.29304C9.38585 1.20014 9.49606 1.12644 9.61737 1.07616C9.73868 1.02588 9.86871 1 10 1C10.1313 1 10.2614 1.02588 10.3827 1.07616C10.504 1.12644 10.6142 1.20014 10.707 1.29304L13.207 3.79304C13.3892 3.98164 13.49 4.23424 13.4877 4.49644C13.4854 4.75863 13.3803 5.00945 13.1948 5.19485C13.0094 5.38026 12.7586 5.48543 12.4964 5.48771C12.2342 5.48999 11.9816 5.38919 11.793 5.20704L10 3.41414L6.70703 6.70704C6.6143 6.80005 6.50411 6.87381 6.38277 6.9241C6.26144 6.97438 6.13137 7.00019 6.00003 7.00004Z" fill="#4294FF"/>
<path d="M18.2929 1.29302L16.293 3.293L17.707 4.70707L19.707 2.70709L18.2929 1.29302Z" fill="#4294FF"/>
<path d="M19.73 6.69004L19.71 6.71004L7.42001 19L6.71001 19.71C6.56974 19.8475 6.39257 19.9413 6.20001 19.98L1.20001 20.98C1.13393 20.9916 1.06708 20.9983 1.00001 21C0.734347 21.0008 0.479143 20.8966 0.290005 20.71C0.174436 20.5917 0.0894479 20.447 0.0424015 20.2885C-0.00464499 20.1299 -0.0123322 19.9622 0.0200054 19.8L0.730005 16.25L1.02001 14.8C1.05871 14.6075 1.15251 14.4303 1.29001 14.29L2.00001 13.58L14.29 1.29004C14.4788 1.10269 14.734 0.997559 15 0.997559C15.266 0.997559 15.5212 1.10269 15.71 1.29004L19.71 5.29004C19.8932 5.47581 19.9975 5.72515 20.0013 5.98602C20.005 6.24689 19.9078 6.49912 19.73 6.69004Z" fill="#E6ECFF"/>
<path d="M19.71 6.71005L7.42001 19.0001L6.71001 19.7101C6.56974 19.8475 6.39257 19.9413 6.20001 19.9801L1.20001 20.9801C1.13393 20.9917 1.06708 20.9983 1.00001 21.0001C0.734347 21.0008 0.479143 20.8966 0.290005 20.7101C0.174436 20.5917 0.0894479 20.447 0.0424015 20.2885C-0.00464499 20.1299 -0.0123322 19.9623 0.0200054 19.8001L0.730005 16.2501C7.5419 14.1445 13.9561 10.9205 19.71 6.71005Z" fill="#B7C6E2"/>
<path d="M6.71001 19.71C6.56974 19.8475 6.39257 19.9413 6.20001 19.98L1.20001 20.98C1.13393 20.9916 1.06708 20.9983 1.00001 21C0.734347 21.0008 0.479143 20.8966 0.290005 20.71C0.174436 20.5917 0.0894479 20.447 0.0424015 20.2884C-0.00464499 20.1299 -0.0123322 19.9622 0.0200054 19.8L0.730005 16.25L1.02001 14.8C1.05871 14.6075 1.15251 14.4303 1.29001 14.29L6.71001 19.71Z" fill="#4294FF"/>
<path d="M6.71001 19.71C6.56974 19.8475 6.39257 19.9413 6.20001 19.98L1.20001 20.98C1.13393 20.9917 1.06708 20.9983 1.00001 21C0.734347 21.0008 0.479143 20.8966 0.290005 20.71C0.174436 20.5917 0.0894479 20.447 0.0424015 20.2885C-0.00464499 20.1299 -0.0123322 19.9622 0.0200054 19.8L0.730005 16.25C1.34001 16.07 1.98001 15.86 2.64001 15.64L6.71001 19.71Z" fill="#2965ED"/>
</svg>
