<svg width="24" height="20" viewBox="0 0 24 20" fill="none" xmlns="http://www.w3.org/2000/svg">
<path d="M21 2H16C15.8687 1.99993 15.7386 2.02574 15.6172 2.07597C15.4959 2.1262 15.3856 2.19985 15.2927 2.29273C15.1999 2.3856 15.1262 2.49587 15.076 2.61723C15.0257 2.73859 14.9999 2.86866 15 3V4H9V3C9.00008 2.86866 8.97426 2.73859 8.92403 2.61723C8.8738 2.49587 8.80015 2.3856 8.70727 2.29273C8.6144 2.19985 8.50413 2.1262 8.38277 2.07597C8.26141 2.02574 8.13134 1.99993 8 2H3C2.20462 2.00087 1.44206 2.31722 0.879639 2.87964C0.317218 3.44206 0.000868196 4.20462 0 5L0 17C0.000868196 17.7954 0.317218 18.5579 0.879639 19.1204C1.44206 19.6828 2.20462 19.9991 3 20H21C21.7954 19.9991 22.5579 19.6828 23.1204 19.1204C23.6828 18.5579 23.9991 17.7954 24 17V5C23.9991 4.20462 23.6828 3.44206 23.1204 2.87964C22.5579 2.31722 21.7954 2.00087 21 2Z" fill="#E6ECFF"/>
<path d="M9.3811 12.8045C9.78016 12.2874 9.99768 11.6532 10 11C10 10.2044 9.68393 9.44129 9.12132 8.87868C8.55871 8.31607 7.79565 8 7 8C6.20435 8 5.44129 8.31607 4.87868 8.87868C4.31607 9.44129 4 10.2044 4 11C4.00232 11.6532 4.21984 12.2874 4.6189 12.8045C4.11832 13.1738 3.71117 13.6551 3.43005 14.21C3.14893 14.7649 3.00165 15.378 3 16V17C2.99993 17.1313 3.02574 17.2614 3.07597 17.3828C3.1262 17.5041 3.19985 17.6144 3.29273 17.7073C3.3856 17.8001 3.49587 17.8738 3.61723 17.924C3.73859 17.9743 3.86866 18.0001 4 18H10C10.1313 18.0001 10.2614 17.9743 10.3828 17.924C10.5041 17.8738 10.6144 17.8001 10.7073 17.7073C10.8001 17.6144 10.8738 17.5041 10.924 17.3828C10.9743 17.2614 11.0001 17.1313 11 17V16C10.9984 15.378 10.8511 14.7649 10.5699 14.21C10.2888 13.6551 9.88167 13.1738 9.3811 12.8045Z" fill="#4294FF"/>
<path d="M20 11H13C12.7348 11 12.4804 10.8946 12.2929 10.7071C12.1054 10.5196 12 10.2652 12 10C12 9.73478 12.1054 9.48043 12.2929 9.29289C12.4804 9.10536 12.7348 9 13 9H20C20.2652 9 20.5196 9.10536 20.7071 9.29289C20.8946 9.48043 21 9.73478 21 10C21 10.2652 20.8946 10.5196 20.7071 10.7071C20.5196 10.8946 20.2652 11 20 11Z" fill="#4294FF"/>
<path d="M19 14H13C12.7348 14 12.4804 13.8946 12.2929 13.7071C12.1054 13.5196 12 13.2652 12 13C12 12.7348 12.1054 12.4804 12.2929 12.2929C12.4804 12.1054 12.7348 12 13 12H19C19.2652 12 19.5196 12.1054 19.7071 12.2929C19.8946 12.4804 20 12.7348 20 13C20 13.2652 19.8946 13.5196 19.7071 13.7071C19.5196 13.8946 19.2652 14 19 14Z" fill="#4294FF"/>
<path d="M18 17H13C12.7348 17 12.4804 16.8946 12.2929 16.7071C12.1054 16.5196 12 16.2652 12 16C12 15.7348 12.1054 15.4804 12.2929 15.2929C12.4804 15.1054 12.7348 15 13 15H18C18.2652 15 18.5196 15.1054 18.7071 15.2929C18.8946 15.4804 19 15.7348 19 16C19 16.2652 18.8946 16.5196 18.7071 16.7071C18.5196 16.8946 18.2652 17 18 17Z" fill="#4294FF"/>
<path d="M16 0H8C7.44772 0 7 0.447715 7 1V5C7 5.55228 7.44772 6 8 6H16C16.5523 6 17 5.55228 17 5V1C17 0.447715 16.5523 0 16 0Z" fill="#4294FF"/>
</svg>
