<svg width="22" height="20" viewBox="0 0 22 20" fill="none" xmlns="http://www.w3.org/2000/svg">
<path d="M11.8945 4.55273L9.89453 0.55273C9.81148 0.386608 9.68379 0.246903 9.52579 0.149276C9.36779 0.0516486 9.18573 -4.15292e-05 9 2.50346e-08H1C0.734784 2.50346e-08 0.48043 0.105357 0.292893 0.292893C0.105357 0.48043 0 0.734784 0 1V5C0 5.26522 0.105357 5.51957 0.292893 5.70711C0.48043 5.89464 0.734784 6 1 6H11C11.1705 6 11.3381 5.95642 11.487 5.87341C11.6359 5.79041 11.7611 5.67072 11.8507 5.52572C11.9403 5.38072 11.9914 5.21521 11.9991 5.04492C12.0067 4.87463 11.9708 4.7052 11.8945 4.55273Z" fill="#376CFB"/>
<path d="M21 4H0V19C0 19.2652 0.105357 19.5196 0.292893 19.7071C0.48043 19.8946 0.734784 20 1 20H21C21.2652 20 21.5196 19.8946 21.7071 19.7071C21.8946 19.5196 22 19.2652 22 19V5C22 4.73478 21.8946 4.48043 21.7071 4.29289C21.5196 4.10536 21.2652 4 21 4Z" fill="#4294FF"/>
</svg>
