<svg width="20" height="20" viewBox="0 0 20 20" fill="none" xmlns="http://www.w3.org/2000/svg">
<path d="M14 15C13.8687 15.0001 13.7386 14.9743 13.6172 14.924C13.4959 14.8737 13.3857 14.8 13.293 14.707L10.533 11.947C10.4382 11.8545 10.3627 11.7442 10.3109 11.6224C10.2591 11.5006 10.2319 11.3697 10.2311 11.2373C10.2303 11.1049 10.2557 10.9737 10.306 10.8512C10.3563 10.7287 10.4304 10.6174 10.524 10.5238C10.6176 10.4302 10.7289 10.3561 10.8513 10.3059C10.9738 10.2556 11.105 10.2301 11.2374 10.231C11.3698 10.2318 11.5007 10.2589 11.6225 10.3107C11.7443 10.3626 11.8547 10.4381 11.9471 10.5329L14.7071 13.2929C14.8469 13.4327 14.9422 13.6109 14.9808 13.8049C15.0193 13.9988 14.9995 14.1999 14.9239 14.3826C14.8482 14.5654 14.72 14.7215 14.5556 14.8314C14.3911 14.9413 14.1978 14.9999 14 15Z" fill="#376CFB"/>
<path d="M7 14C10.866 14 14 10.8659 14 6.99995C14 3.13396 10.866 -4.57764e-05 7 -4.57764e-05C3.13401 -4.57764e-05 0 3.13396 0 6.99995C0 10.8659 3.13401 14 7 14Z" fill="#E6ECFF"/>
<path d="M19.293 15.8789L15.707 12.293C15.6142 12.2001 15.504 12.1264 15.3827 12.0761C15.2614 12.0258 15.1314 11.9999 15 11.9999C14.8687 11.9999 14.7387 12.0258 14.6174 12.0761C14.4961 12.1264 14.3858 12.2001 14.293 12.293L12.293 14.293C12.2001 14.3858 12.1264 14.496 12.0762 14.6173C12.0259 14.7386 12 14.8686 12 15C12 15.1313 12.0259 15.2613 12.0762 15.3826C12.1264 15.5039 12.2001 15.6141 12.293 15.707L15.8789 19.293C16.3317 19.7457 16.9457 20 17.586 20C18.2263 20 18.8403 19.7457 19.293 19.293C19.7458 18.8402 20.0001 18.2262 20.0001 17.5859C20.0001 16.9456 19.7458 16.3316 19.293 15.8789Z" fill="#4294FF"/>
</svg>
