<svg width="20" height="20" viewBox="0 0 20 20" fill="none" xmlns="http://www.w3.org/2000/svg">
<path d="M19 7H17.2422L18.4854 5.7573C18.6729 5.56977 18.7782 5.31546 18.7782 5.0503C18.7782 4.78514 18.6729 4.53083 18.4854 4.3433L15.6572 1.5146C15.4697 1.32713 15.2154 1.22181 14.9502 1.22181C14.685 1.22181 14.4307 1.32713 14.2432 1.5146L13 2.7578V1C13 0.734784 12.8946 0.48043 12.7071 0.292893C12.5196 0.105357 12.2652 0 12 0H8C7.73478 0 7.48043 0.105357 7.29289 0.292893C7.10536 0.48043 7 0.734784 7 1V2.7578L5.7568 1.5146C5.56572 1.33397 5.31274 1.23333 5.0498 1.23333C4.78686 1.23333 4.53388 1.33397 4.3428 1.5146L1.5146 4.3433C1.32713 4.53083 1.22181 4.78514 1.22181 5.0503C1.22181 5.31546 1.32713 5.56977 1.5146 5.7573L2.7578 7H1C0.734784 7 0.48043 7.10536 0.292893 7.29289C0.105357 7.48043 0 7.73478 0 8V12C0 12.2652 0.105357 12.5196 0.292893 12.7071C0.48043 12.8946 0.734784 13 1 13H2.7578L1.5146 14.2427C1.32713 14.4302 1.22181 14.6845 1.22181 14.9497C1.22181 15.2149 1.32713 15.4692 1.5146 15.6567L4.3428 18.4854C4.53033 18.6729 4.78464 18.7782 5.0498 18.7782C5.31496 18.7782 5.56927 18.6729 5.7568 18.4854L7 17.2422V19C7 19.2652 7.10536 19.5196 7.29289 19.7071C7.48043 19.8946 7.73478 20 8 20H12C12.2652 20 12.5196 19.8946 12.7071 19.7071C12.8946 19.5196 13 19.2652 13 19V17.2422L14.2432 18.4854C14.4343 18.666 14.6873 18.7667 14.9502 18.7667C15.2131 18.7667 15.4661 18.666 15.6572 18.4854L18.4854 15.6567C18.6729 15.4692 18.7782 15.2149 18.7782 14.9497C18.7782 14.6845 18.6729 14.4302 18.4854 14.2427L17.2422 13H19C19.2652 13 19.5196 12.8946 19.7071 12.7071C19.8946 12.5196 20 12.2652 20 12V8C20 7.73478 19.8946 7.48043 19.7071 7.29289C19.5196 7.10536 19.2652 7 19 7Z" fill="#4294FF"/>
<path d="M10 14C12.2091 14 14 12.2091 14 10C14 7.79086 12.2091 6 10 6C7.79086 6 6 7.79086 6 10C6 12.2091 7.79086 14 10 14Z" fill="#376CFB"/>
</svg>
