<svg width="22" height="18" viewBox="0 0 22 18" fill="none" xmlns="http://www.w3.org/2000/svg">
<path d="M11.1668 5C10.9303 4.99975 10.7015 4.91569 10.5212 4.76274C10.3408 4.6098 10.2204 4.39787 10.1815 4.1646L9.8208 2H6.8485L7.1541 3.8354C7.19461 4.09559 7.13086 4.36126 6.97668 4.57473C6.8225 4.7882 6.59035 4.93225 6.33061 4.97559C6.07088 5.01894 5.80453 4.95809 5.58939 4.80625C5.37425 4.65441 5.22768 4.42384 5.1815 4.1646L4.6815 1.1646C4.65759 1.02134 4.66518 0.874585 4.70374 0.734551C4.74229 0.594517 4.81089 0.464563 4.90476 0.353726C4.99862 0.242889 5.11551 0.15383 5.24728 0.0927437C5.37906 0.0316571 5.52256 8.87327e-06 5.6678 1.00454e-07H10.6678C10.9045 -0.000105979 11.1336 0.0838056 11.3142 0.236791C11.4948 0.389777 11.6153 0.601906 11.6541 0.8354L12.1541 3.8354C12.1779 3.97873 12.1702 4.12552 12.1315 4.26557C12.0929 4.40563 12.0242 4.53558 11.9302 4.64641C11.8363 4.75723 11.7193 4.84627 11.5875 4.90733C11.4556 4.96839 11.3121 5.00002 11.1668 5Z" fill="#4294FF"/>
<path d="M17.4908 6.84C17.5133 6.98313 17.5046 7.12943 17.4652 7.26887C17.4258 7.4083 17.3567 7.53756 17.2627 7.64777C17.1686 7.75798 17.0518 7.84652 16.9203 7.90732C16.7888 7.96812 16.6457 7.99974 16.5008 8H7.6808L6.6308 10.61L3.93079 17.37C3.85669 17.5561 3.72843 17.7156 3.56261 17.8279C3.3968 17.9402 3.20107 18.0002 3.00079 18C2.96384 18.0021 2.92677 17.9987 2.89079 17.99C2.67201 17.9666 2.46709 17.8716 2.30793 17.7197C2.14878 17.5677 2.04431 17.3675 2.01079 17.15L0.0107947 4.15C-0.0101831 4.00796 -0.000511196 3.86308 0.0391604 3.72509C0.078832 3.58711 0.147584 3.45921 0.240795 3.35C0.301214 3.27965 0.372032 3.21895 0.450795 3.17C0.612613 3.0588 0.804452 2.9995 1.00079 3H16.0008C16.2388 2.99917 16.4693 3.08333 16.6508 3.23732C16.8323 3.39131 16.9529 3.60503 16.9908 3.84L17.4908 6.84Z" fill="#E6ECFF"/>
<path d="M6.6308 10.61L3.93079 17.37C3.85669 17.5561 3.72843 17.7156 3.56261 17.8279C3.3968 17.9402 3.20107 18.0002 3.00079 18C2.96384 18.0021 2.92677 17.9987 2.89079 17.99C2.67201 17.9666 2.46709 17.8716 2.30793 17.7197C2.14878 17.5677 2.04431 17.3675 2.01079 17.15L0.0107947 4.15C-0.0101831 4.00796 -0.000511196 3.86308 0.0391604 3.72509C0.078832 3.5871 0.147584 3.45921 0.240795 3.35C0.301214 3.27965 0.372032 3.21895 0.450795 3.17C2.32178 5.8011 4.38759 8.28808 6.6308 10.61Z" fill="#B7C6E2"/>
<path d="M21.9308 7.37L17.9308 17.37C17.8567 17.5561 17.7284 17.7156 17.5626 17.8279C17.3968 17.9402 17.2011 18.0002 17.0008 18H3.0008C2.83697 18.0004 2.67557 17.9604 2.53083 17.8837C2.38608 17.807 2.26244 17.6958 2.1708 17.56C2.0812 17.4242 2.02538 17.2689 2.00799 17.1071C1.99059 16.9454 2.01213 16.7818 2.0708 16.63L5.1208 9L6.0708 6.63C6.1449 6.44393 6.27317 6.28441 6.43898 6.17208C6.6048 6.05975 6.80052 5.9998 7.0008 6H21.0008C21.1646 5.99963 21.326 6.03957 21.4708 6.1163C21.6155 6.19304 21.7392 6.3042 21.8308 6.44C21.9204 6.57582 21.9762 6.73109 21.9936 6.89287C22.011 7.05465 21.9895 7.21824 21.9308 7.37Z" fill="#4294FF"/>
<path d="M15.9408 18H3.0008C2.83697 18.0004 2.67557 17.9604 2.53083 17.8837C2.38608 17.807 2.26244 17.6958 2.1708 17.56C2.0812 17.4242 2.02538 17.2689 2.00799 17.1071C1.99059 16.9454 2.01213 16.7818 2.0708 16.63L5.1208 9C8.24374 12.538 11.8932 15.5736 15.9408 18Z" fill="#2965ED"/>
</svg>
