<svg width="95" height="42" viewBox="0 0 95 42" fill="none" xmlns="http://www.w3.org/2000/svg">
<path d="M7.41758 24V5.92H0.177578V0.999998H20.9776V5.92H13.7376V24H7.41758ZM19.3841 24L29.7041 0.999998H35.9441L46.3041 24H40.0641L31.7841 4.04H33.9041L25.5041 24H19.3841ZM25.0241 19.44L26.6641 14.88H38.0241L39.6641 19.44H25.0241ZM67.0751 17C67.0751 18.44 66.6617 19.72 65.8351 20.84C65.0351 21.96 63.8617 22.84 62.3151 23.48C60.7951 24.12 58.9151 24.44 56.6751 24.44C54.8351 24.44 53.0217 24.2133 51.2351 23.76C49.4751 23.3067 48.0484 22.7067 46.9551 21.96L49.1551 17.28C50.1951 17.9733 51.4084 18.52 52.7951 18.92C54.1817 19.32 55.5951 19.52 57.0351 19.52C58.4484 19.52 59.4351 19.32 59.9951 18.92C60.5551 18.52 60.8351 18.0533 60.8351 17.52C60.8351 16.9867 60.5817 16.56 60.0751 16.24C59.5951 15.92 58.9551 15.6667 58.1551 15.48C57.3817 15.2667 56.5151 15.0667 55.5551 14.88C54.6217 14.6933 53.6751 14.4533 52.7151 14.16C51.7817 13.8667 50.9151 13.48 50.1151 13C49.3417 12.4933 48.7017 11.84 48.1951 11.04C47.7151 10.2133 47.4751 9.18667 47.4751 7.96C47.4751 6.52 47.8884 5.25333 48.7151 4.16C49.5684 3.04 50.7684 2.16 52.3151 1.52C53.8617 0.879999 55.7017 0.559999 57.8351 0.559999C59.2751 0.559999 60.7417 0.719999 62.2351 1.04C63.7284 1.36 65.0351 1.86667 66.1551 2.56L64.1151 7.24C63.0751 6.6 61.9951 6.14667 60.8751 5.88C59.7817 5.61333 58.6884 5.48 57.5951 5.48C56.2617 5.48 55.2884 5.68 54.6751 6.08C54.0617 6.48 53.7551 6.98667 53.7551 7.6C53.7551 8.13333 53.9951 8.56 54.4751 8.88C54.9551 9.2 55.5817 9.46667 56.3551 9.68C57.1551 9.86667 58.0351 10.0533 58.9951 10.24C59.9551 10.4267 60.9017 10.6667 61.8351 10.96C62.7684 11.2267 63.6351 11.6 64.4351 12.08C65.2351 12.56 65.8751 13.2 66.3551 14C66.8351 14.7733 67.0751 15.7733 67.0751 17ZM76.7063 18.84L76.3463 11.8L86.6663 0.999998H93.6263L83.6263 11.72L80.1063 15.28L76.7063 18.84ZM71.0663 24V0.999998H77.3063V24H71.0663ZM86.7863 24L78.9863 14.4L83.1063 10L94.1463 24H86.7863Z" fill="#232328"/>
<path d="M7.67566 41V32.95H9.52366L12.8557 38.368H11.9597L15.2217 32.95H17.0837L17.1117 41H15.0397L15.0257 36.1H15.3337L12.8697 40.146H11.8757L9.32766 36.1H9.73366V41H7.67566ZM18.0517 41L21.6637 32.95H23.8477L27.4737 41H25.2897L22.3917 34.014H23.1337L20.1937 41H18.0517ZM20.0257 39.404L20.5997 37.808H24.5757L25.1497 39.404H20.0257ZM28.4296 41V32.95H30.2496L34.7856 38.396H33.9596V32.95H36.1296V41H34.3096L29.7596 35.554H30.5996V41H28.4296ZM37.083 41L40.695 32.95H42.879L46.505 41H44.321L41.423 34.014H42.165L39.225 41H37.083ZM39.057 39.404L39.631 37.808H43.607L44.181 39.404H39.057ZM54.6321 40.132C54.3334 40.3467 53.9974 40.5333 53.6241 40.692C53.2601 40.8413 52.8774 40.9533 52.4761 41.028C52.0841 41.112 51.6968 41.154 51.3141 41.154C50.4181 41.154 49.6248 40.9767 48.9341 40.622C48.2434 40.258 47.7021 39.7587 47.3101 39.124C46.9274 38.4893 46.7361 37.7753 46.7361 36.982C46.7361 36.17 46.9321 35.4513 47.3241 34.826C47.7161 34.2007 48.2574 33.706 48.9481 33.342C49.6388 32.978 50.4228 32.796 51.3001 32.796C52.0841 32.796 52.7654 32.9173 53.3441 33.16C53.9321 33.3933 54.4221 33.7527 54.8141 34.238L53.3581 35.54C53.0874 35.2227 52.7794 34.9893 52.4341 34.84C52.0981 34.6813 51.7294 34.602 51.3281 34.602C50.8708 34.602 50.4648 34.7047 50.1101 34.91C49.7554 35.106 49.4754 35.3813 49.2701 35.736C49.0648 36.0907 48.9621 36.506 48.9621 36.982C48.9621 37.4393 49.0648 37.85 49.2701 38.214C49.4754 38.5687 49.7554 38.8487 50.1101 39.054C50.4648 39.25 50.8801 39.348 51.3561 39.348C51.7481 39.348 52.1028 39.2873 52.4201 39.166C52.7468 39.0447 53.0688 38.8627 53.3861 38.62L54.6321 40.132ZM52.6161 40.16V36.87H54.6321V40.132L52.6161 40.16ZM56.5526 41V32.95H58.4006L61.7326 38.368H60.8366L64.0986 32.95H65.9606L65.9886 41H63.9166L63.9026 36.1H64.2106L61.7466 40.146H60.7526L58.2046 36.1H58.6106V41H56.5526ZM70.0927 36.114H73.9847V37.724H70.0927V36.114ZM70.3167 39.306H74.6147V41H68.1327V32.95H74.4607V34.644H70.3167V39.306ZM76.2264 41V32.95H78.0464L82.5824 38.396H81.7564V32.95H83.9264V41H82.1064L77.5564 35.554H78.3964V41H76.2264ZM87.5959 41V34.672H85.0619V32.95H92.3419V34.672H89.8079V41H87.5959Z" fill="black"/>
</svg>
