<svg width="14" height="18" viewBox="0 0 14 18" fill="none" xmlns="http://www.w3.org/2000/svg">
<path d="M14 14V17C13.9995 17.2262 13.922 17.4456 13.7803 17.6219C13.6385 17.7982 13.4409 17.921 13.22 17.97C13.1485 17.9904 13.0744 18.0005 13 18H1C0.735019 17.9992 0.481109 17.8936 0.293738 17.7062C0.106368 17.5189 0.000765122 17.265 0 17V14C0.000822739 13.8434 0.0385069 13.6893 0.11 13.55L0.32 13.13C0.939944 11.889 1.8933 10.8453 3.07318 10.1158C4.25306 9.38634 5.61282 8.99994 7 8.99994C8.38718 8.99994 9.74694 9.38634 10.9268 10.1158C12.1067 10.8453 13.0601 11.889 13.68 13.13L13.89 13.55C13.9615 13.6893 13.9992 13.8434 14 14Z" fill="#4294FF"/>
<path d="M7 8C9.20914 8 11 6.20914 11 4C11 1.79086 9.20914 0 7 0C4.79086 0 3 1.79086 3 4C3 6.20914 4.79086 8 7 8Z" fill="#4294FF"/>
<path d="M13.22 17.97C13.1485 17.9904 13.0744 18.0005 13 18H1C0.735019 17.9992 0.481109 17.8936 0.293738 17.7063C0.106368 17.5189 0.000765122 17.265 0 17V14C0.000822739 13.8434 0.0385069 13.6893 0.11 13.55L0.32 13.13C0.670687 12.4236 1.13333 11.7786 1.69 11.22C4.76055 14.5864 8.78147 16.9403 13.22 17.97Z" fill="#2965ED"/>
</svg>
